<svg width="411" height="451" viewBox="0 0 411 451" fill="none" xmlns="http://www.w3.org/2000/svg">
<path fill-rule="evenodd" clip-rule="evenodd" d="M87.84 3.463C82.821 6.873 76.818 16.263 73.116 26.492C71.402 31.229 70 35.644 70 36.302C70 37.201 76.36 37.5 95.5 37.5C109.525 37.5 121 37.462 121 37.415C121 37.368 120.06 34.443 118.912 30.915C110.975 6.531 98.954 -4.09 87.84 3.463ZM64.146 7.566C50.974 13.666 39.995 22.822 32.178 34.224C28.64 39.385 23.002 50.762 23.001 52.742C23 53.505 25.524 52.646 29.537 50.517C34.711 47.772 46.571 43.533 57.561 40.501C58.145 40.34 59.623 36.449 60.847 31.854C62.07 27.259 65.111 19.294 67.605 14.153C70.099 9.012 71.994 4.661 71.817 4.484C71.64 4.306 68.188 5.693 64.146 7.566ZM118.168 4.729C118.36 5.153 120.137 8.65 122.118 12.5C125.53 19.134 128.633 27.597 130.917 36.501L131.943 40.502L140.655 42.754C145.446 43.993 153.221 46.915 157.933 49.249C162.645 51.583 166.83 53.642 167.233 53.824C168.498 54.396 165.094 45.859 161.54 39.548C155.245 28.369 145.205 18.141 133.818 11.309C128.102 7.879 117.595 3.462 118.168 4.729ZM74.131 48.013C70.628 48.503 67.597 49.069 67.396 49.27C66.121 50.546 64.827 72.471 65.347 84C66.241 103.82 66.489 104.794 70.877 105.729C75.644 106.744 114.436 106.726 119.242 105.706C122.136 105.092 123.156 104.299 123.742 102.206C124.718 98.721 124.735 55.335 123.761 51.869C123.348 50.398 122.026 48.937 120.761 48.553C117.135 47.453 81.108 47.035 74.131 48.013ZM47.5 53.894C27.271 60.706 16.912 70.543 19.424 80.554C20.521 84.923 28.224 91.57 37.144 95.843C45.242 99.723 55.419 103.248 56.218 102.449C56.433 102.233 56.271 99.007 55.856 95.278C54.887 86.558 54.888 67.428 55.859 58.69C56.276 54.945 56.365 51.727 56.058 51.54C55.751 51.353 51.9 52.412 47.5 53.894ZM134.5 102.744L139.5 101.334C142.25 100.559 148.625 97.915 153.667 95.46C163.491 90.676 170.293 84.421 171.307 79.239C172.064 75.375 169.038 69.118 164.474 65.112C160.188 61.349 147.205 54.889 139.5 52.686L134.5 51.256V102.744ZM23.001 101.328C23.002 103.614 29.156 115.465 33.51 121.566C40.502 131.365 50.025 139.409 61.336 145.071C66.807 147.81 71.503 149.831 71.772 149.562C72.041 149.293 70.42 145.534 68.169 141.209C65.919 136.883 62.806 128.919 61.251 123.51L58.423 113.676L49.462 111.321C44.533 110.026 36.563 106.984 31.75 104.561C26.899 102.119 23 100.678 23.001 101.328ZM160.5 103.61C157.2 105.467 150 108.376 144.5 110.074C139 111.772 133.884 113.474 133.132 113.857C132.379 114.239 130.677 118.365 129.349 123.026C127.377 129.952 124.585 136.52 118.212 149.233C117.567 150.52 126.193 147.065 132.452 143.531C145.934 135.917 157.57 123.377 164.167 109.353C166.275 104.872 168 100.934 168 100.603C168 99.592 166.744 100.095 160.5 103.61ZM70 117.698C70 120.703 76.553 136.546 80.007 141.889C92.876 161.8 108.819 154.095 118.912 123.085C120.06 119.557 121 116.632 121 116.585C121 116.538 109.525 116.5 95.5 116.5C76.36 116.5 70 116.799 70 117.698ZM0 297H411V270H0V297ZM29.473 308.216C29.203 308.922 29.099 341 29.241 379.5L29.5 449.5L52.013 450.066L51.5 307.5L40.732 307.216C32.675 307.003 29.84 307.255 29.473 308.216ZM62.67 307.663C62.302 308.032 62 340.208 62 379.167V450H349.013L348.5 307.5L205.92 307.247C127.501 307.107 63.039 307.295 62.67 307.663ZM359 450H381.013L380.5 307.5L359 306.932V450ZM132.193 318.875C132.912 319.907 136.65 327.782 140.5 336.375L147.5 351.999L160.25 352C167.262 352 173 351.844 173 351.654C173 351.463 170.075 344.971 166.5 337.226C162.925 329.482 160 322.47 160 321.644C160 317.724 162.626 317 176.832 317H190.521L225.479 352H250.279L251.736 352C268.446 351.998 274.999 351.997 280.212 354.64C283.575 356.345 286.381 359.15 290.996 363.766L291.618 364.388C311.199 383.955 315.205 399.184 302.502 405.759C299.874 407.119 294.85 407.23 262.161 406.645L224.823 405.977L191.794 440H161.957L160.814 437.49C159.803 435.271 160.502 433.17 166.851 419.34C170.801 410.738 173.861 403.528 173.651 403.318C173.441 403.108 167.472 402.264 160.385 401.441C138.181 398.864 122.49 395.327 114 390.985C107.152 387.482 105.986 385.27 102.835 369.801C100.161 356.674 99.945 354.055 100.211 337.901C100.426 324.797 100.851 319.879 101.872 318.651C103.027 317.262 105.441 317 117.066 317C129.449 317 131.023 317.195 132.193 318.875ZM110.986 337.206C110.979 342.868 110.701 348.512 110.37 349.75C109.767 352 109.769 352 122.883 352C130.098 352 135.979 351.663 135.954 351.25C135.929 350.837 133.539 345.325 130.644 339L125.381 327.5L111 326.912L110.986 337.206ZM175.376 332.25C176.669 335.137 179.198 340.762 180.997 344.75L184.268 352H211.47L186.53 327H173.025L175.376 332.25ZM112.422 366.33C112.779 368.711 113.618 372.844 114.286 375.514C115.366 379.832 115.998 380.612 120 382.57C137.054 390.911 189.515 395.88 265 396.306C298.816 396.496 299.505 396.46 299.774 394.5C300.392 389.991 289.002 374.455 279.158 366.381L273.817 362H111.773L112.422 366.33ZM269.171 376.655C271.416 378.686 271.516 381.341 269.429 383.429C267.069 385.788 243.452 385.719 240.829 383.345C238.594 381.323 238.54 380.102 240.557 377.223C242.025 375.126 242.826 375 254.728 375C265.063 375 267.673 375.299 269.171 376.655ZM182.617 409.101C181.294 412.07 178.615 417.988 176.663 422.25L173.114 430H186.53L211.47 405H207.389C205.144 405 199.193 404.708 194.164 404.351L185.022 403.702L182.617 409.101Z" fill="#FF9668"/>
<path fill-rule="evenodd" clip-rule="evenodd" d="M222.573 53.928C230.986 29.757 245.241 8.659 257.537 2.178C263.691 -1.066 268.249 -0.673 272.868 3.5C274.999 5.425 277.533 7 278.5 7C279.467 7 282.001 5.425 284.132 3.5C287.046 0.867 288.897 0 291.602 0C308.669 0 331.568 34.699 340.213 73.662C342.005 81.741 342.391 86.628 342.374 101C342.351 120.472 341.138 126.965 334.929 140.849C331.871 147.69 331.489 148.126 329.079 147.529C327.66 147.178 321.464 146.635 315.31 146.322C306.977 145.898 303.98 145.391 303.576 144.337C303.277 143.558 309.325 130.342 317.016 114.967C324.707 99.593 331 85.906 331 84.551C331 82.558 329.667 81.31 324.016 78.01C308.252 68.803 295.173 55.899 286.321 40.821C283.841 36.598 281.116 32.875 280.265 32.548C277.481 31.48 275.003 33.073 272.842 37.323C265.588 51.589 250.825 67.113 235.653 76.425C227.904 81.182 226 82.811 226 84.682C226 85.965 232.293 99.593 239.984 114.967C247.675 130.342 253.723 143.558 253.424 144.337C253.021 145.389 250.003 145.906 241.69 146.35C235.536 146.678 229.375 147.071 228 147.223C225.827 147.464 225.079 146.649 222.288 141C216.639 129.571 214.599 118.809 214.61 100.5C214.621 82.257 216.464 71.48 222.573 53.928ZM244.995 82.503C254.169 76.405 266.599 64.634 273.036 55.951C275.87 52.128 278.484 49.012 278.845 49.027C279.205 49.042 280.625 50.937 282 53.239C285.753 59.521 303.517 76.896 311.75 82.336C315.738 84.971 319 87.588 319 88.151C319 88.714 313.812 99.217 307.472 111.49C296.085 133.533 295.886 133.834 291.222 136.108C284.366 139.45 273.309 139.416 266.07 136.029L260.787 133.559L249.394 110.788C243.127 98.264 238 87.822 238 87.585C238 87.348 241.148 85.061 244.995 82.503ZM266.874 156.822C262.803 152.15 262.04 150.687 262.571 148.572C262.926 147.157 263.281 146.005 263.358 146.011C263.436 146.017 265.709 146.692 268.409 147.511C274.463 149.347 281.963 149.415 288.6 147.694C293.538 146.413 293.657 146.435 294.795 148.846C295.881 151.146 295.4 151.871 287.286 160.162L278.617 169.021L275.219 165.761C273.351 163.967 269.595 159.945 266.874 156.822ZM254.522 171.389C249.711 164.342 245.552 157.997 245.28 157.288C244.937 156.394 245.818 156 248.162 156C251.107 156 252.809 157.276 261.502 166.002L271.467 176.004L263.269 184.201L254.522 171.389ZM285.533 176.004L295.498 166.002C304.618 156.848 305.784 156 309.249 156H313.035L303.875 169.75C298.837 177.313 294.539 183.703 294.323 183.951C294.108 184.199 292.042 182.512 289.732 180.203L285.533 176.004ZM196.691 184.147C202.024 173.484 214.199 163.149 226.971 158.442C228.912 157.726 230.992 157.109 231.592 157.07C232.193 157.032 237.545 164.313 243.486 173.25C249.427 182.188 255.61 191.188 257.228 193.25C260.21 197.054 263.516 198.084 265.707 195.893C266.517 195.083 267.1 195.317 267.875 196.766C268.666 198.245 267.931 206.307 264.967 228.621C262.785 245.052 261 258.835 261 259.248C261 259.662 252.45 260 242 260H223V229.7C223 197.322 222.951 197 218 197C213.049 197 213 197.322 213 229.7V260H191L191.012 230.25C191.025 197.978 191.434 194.656 196.691 184.147ZM291.879 196.156C295.966 198.709 298.138 196.531 311.49 176.494C318.634 165.772 324.804 157 325.202 157C327.262 157 338.132 161.701 342.5 164.48C348.678 168.412 356.609 176.989 360.217 183.64C365.447 193.282 366 197.738 366 230.21V260H344V229.7C344 197.322 343.951 197 339 197C334.049 197 334 197.322 334 229.7V260H315C297.585 260 295.997 259.854 295.965 258.25C295.946 257.288 294.187 243.458 292.055 227.518C288.041 197.507 288.02 193.746 291.879 196.156ZM276.391 190.474C274.84 188.107 274.85 187.824 276.545 185.95C279.707 182.456 283.286 185.882 281.217 190.422C279.74 193.666 278.491 193.679 276.391 190.474ZM49.37 232.151C44.217 217.109 40 204.392 40 203.891C40 203.353 59.282 203.087 87.158 203.24L134.317 203.5L143.605 230.5C148.714 245.35 152.918 258.067 152.947 258.76C152.989 259.759 143.262 259.966 105.87 259.76L58.74 259.5L49.37 232.151ZM271.433 256.25C272.229 251.346 278 206.847 278 205.615C278 205.094 278.222 204.888 278.493 205.16C278.895 205.562 285.996 256.734 285.999 259.25C286 259.663 282.585 260 278.412 260H270.824L271.433 256.25Z" fill="#13478C"/>
</svg>
