<svg width="496" height="496" viewBox="0 0 496 496" fill="none" xmlns="http://www.w3.org/2000/svg">
<path fill-rule="evenodd" clip-rule="evenodd" d="M237.382 1.08206C228.089 4.55506 220.625 11.7731 217.711 20.1041C216.77 22.7951 215.471 25.2041 214.824 25.4571C214.177 25.7111 208.777 26.8951 202.824 28.0901L192 30.2611L191.71 39.0911C191.427 47.7101 191.471 47.9051 193.555 47.2441C196.614 46.2731 213.716 42.7901 215.502 42.7741C216.328 42.7671 218.082 44.7941 219.4 47.2791C222.183 52.5251 227.604 57.7111 233.705 60.9651C237.315 62.8901 239.515 63.2551 247.5 63.2551C255.485 63.2551 257.685 62.8901 261.295 60.9651C267.396 57.7111 272.817 52.5251 275.6 47.2791C276.918 44.7941 278.586 42.7611 279.306 42.7611C283.053 42.7611 302.478 47.4491 313 50.8931C326.397 55.2771 349.413 66.2351 359.843 73.1951C363.607 75.7061 366.869 77.7611 367.093 77.7611C367.317 77.7611 367.5 73.3541 367.5 67.9691V58.1771L361.25 54.5641C338.313 41.3051 316.392 33.0011 290.5 27.7601C284.725 26.5911 279.737 25.3261 279.415 24.9481C279.094 24.5701 278.058 22.1611 277.114 19.5941C274.831 13.3861 268.926 6.85506 262.368 3.28606C257.983 0.899057 255.588 0.320057 249.012 0.0540575C243.963 -0.149943 239.662 0.230057 237.382 1.08206ZM28.573 19.5111C30.377 21.5741 43.296 35.9731 57.281 51.5111L82.709 79.7611H108.291L133.719 51.5111C147.704 35.9731 160.623 21.5741 162.427 19.5111L165.707 15.7611H25.293L28.573 19.5111ZM385.674 18.0751C383.968 19.8911 383.5 21.6141 383.5 26.0751V31.7611H479.5V26.3961C479.5 22.4821 478.939 20.3181 477.427 18.3961L475.355 15.7611H387.849L385.674 18.0751ZM15.5 74.5981C15.5 111.353 15.757 120.726 16.75 120.134C19.35 118.585 66.036 87.4811 66.796 86.7921C67.398 86.2451 29.849 43.3041 17.388 30.2891C15.536 28.3541 15.5 29.2001 15.5 74.5981ZM149.212 57.4021C135.029 73.1781 123.779 86.4081 124.212 86.8021C124.646 87.1961 136.25 94.9991 150 104.143L175 120.767L175.268 97.7641C175.416 85.1121 175.416 64.4011 175.268 51.7391L175 28.7171L149.212 57.4021ZM383.5 143.761H479.5V47.7611H383.5V143.761ZM34.23 127.261L64.865 127.525C81.714 127.671 109.286 127.671 126.135 127.525L156.771 127.261L109.507 95.7611L81 95.8951L34.23 127.261ZM43.645 154.644C37.045 168.543 31.194 186.38 27.933 202.542C26.521 209.537 25.059 215.524 24.683 215.846C24.307 216.167 21.9 217.203 19.333 218.147C13.15 220.42 6.62 226.31 2.966 232.906C0.262 237.788 0 239.1 0 247.761C0 256.422 0.262 257.734 2.966 262.616C6.703 269.363 13.219 275.146 19.857 277.609C24.503 279.332 25.083 279.891 25.862 283.389C26.337 285.518 28.137 293.111 29.862 300.261L33 313.261L37.5 312.803C39.975 312.552 43.688 312.327 45.75 312.303C47.813 312.28 49.5 311.954 49.5 311.579C49.5 311.203 48.198 305.803 46.606 299.579C45.014 293.354 43.417 286.011 43.056 283.261L42.402 278.261L46.968 275.863C52.25 273.089 57.432 267.691 60.704 261.556C62.629 257.946 62.994 255.746 62.994 247.761C62.994 239.776 62.629 237.576 60.704 233.966C57.432 227.831 52.25 222.433 46.968 219.659L42.402 217.261L43.06 212.261C45.111 196.699 53.053 172.652 62.135 154.511L67.517 143.761H48.813L43.645 154.644ZM383.5 165.587C383.5 170.383 383.909 171.796 385.814 173.587C388.117 175.75 388.35 175.761 431.36 175.761H474.591L477.045 173.306C479.061 171.291 479.5 169.861 479.5 165.306V159.761H383.5V165.587ZM448.017 193.816C448.988 196.875 452.471 213.977 452.487 215.763C452.494 216.589 450.467 218.343 447.982 219.661C442.736 222.444 437.55 227.865 434.296 233.966C432.371 237.576 432.006 239.776 432.006 247.761C432.006 255.746 432.371 257.946 434.296 261.556C437.55 267.657 442.736 273.078 447.982 275.861C450.467 277.179 452.5 278.771 452.5 279.399C452.5 280.027 451.593 284.978 450.485 290.401C448.009 302.518 443.558 317.093 439.121 327.616L435.775 335.547L444.267 336.255C450.903 336.808 452.945 336.667 453.617 335.612C457.247 329.904 466.639 298.366 468.085 287.029C468.903 280.616 469.748 279.54 475.667 277.37C481.846 275.105 488.378 269.216 492.034 262.616C494.738 257.734 495 256.422 495 247.761C495 239.1 494.738 237.788 492.034 232.906C488.298 226.161 481.783 220.377 475.143 217.91L474.795 217.781C473.022 217.124 471.84 216.686 470.959 215.908C469.194 214.348 468.639 211.421 466.97 202.63L466.805 201.761L465 192.261L456.17 191.971C447.551 191.688 447.356 191.732 448.017 193.816ZM32.947 331.609C23.492 336.186 18.719 339.992 16.864 344.432C14.555 349.958 15.167 362.236 18.383 374.904C31.225 425.496 71.188 465.025 121.916 477.315C132.695 479.927 145.3 480.543 150.185 478.697C154.973 476.888 158.568 472.618 163.122 463.334C168.438 452.493 168.908 446.84 165.041 440.241C161.989 435.033 160.185 433.845 147.309 428.563C137.864 424.689 136.246 424.331 128 424.298C117.01 424.253 112.746 426.051 103.283 434.723L96.865 440.603L91.275 438.331C74.136 431.365 61.999 418.765 55.97 401.675L54.472 397.43L59.762 392.715C62.671 390.122 66.39 385.584 68.026 382.631C70.749 377.714 70.997 376.46 70.967 367.761C70.937 358.918 70.642 357.548 66.702 347.952C61.414 335.073 60.227 333.271 55.02 330.22C48.653 326.488 42.756 326.859 32.947 331.609ZM425.727 353.208C406.67 357.823 390.014 374.603 385.018 394.221C382.856 402.711 382.856 444.811 385.018 453.301C390.078 473.168 406.093 489.183 425.96 494.243C429.238 495.078 433.626 495.761 435.71 495.761H439.5V479.852L435.75 479.225C422.854 477.068 414.519 472.225 407.402 462.754C400.845 454.026 400 449.577 400 423.761C400 397.945 400.845 393.496 407.402 384.768C415.475 374.024 426.493 368.409 439.5 368.409C452.507 368.409 463.525 374.024 471.598 384.768C478.69 394.207 479 396.436 479 437.982C479 474.455 478.985 474.719 476.806 476.899C473.931 479.775 469.071 479.776 466.194 476.901C464.033 474.741 463.993 474.152 463.5 437.404L463 400.099L459.974 395.206C458.099 392.176 455.084 389.162 452.052 387.287C447.719 384.609 446.277 384.261 439.5 384.261C432.723 384.261 431.281 384.609 426.948 387.287C423.914 389.163 420.902 392.175 419.026 395.209L416 400.104V447.418L419.026 452.313C420.902 455.347 423.914 458.359 426.948 460.235C431.292 462.92 432.714 463.261 439.579 463.261H447.315L447.658 471.341C447.95 478.25 448.439 480.13 451.026 484.315C452.901 487.346 455.915 490.36 458.948 492.235C463.281 494.913 464.723 495.261 471.5 495.261C478.277 495.261 479.719 494.913 484.052 492.235C487.085 490.36 490.099 487.346 491.974 484.315L495 479.421L495.283 439.996C495.52 407.06 495.312 399.558 494.02 394.416C488.998 374.427 472.993 358.36 453.04 353.279C445.933 351.469 433.047 351.435 425.727 353.208ZM445 402.893C446.862 404.684 447 406.124 447 423.761C447 441.932 446.91 442.795 444.806 444.9C441.654 448.051 436.806 447.818 433.842 444.372C431.577 441.739 431.5 441.07 431.5 423.928C431.5 409.269 431.778 405.809 433.107 403.912C436.191 399.509 441.048 399.093 445 402.893ZM359.5 422.392C349.929 429.041 326.721 440.139 313 444.629C302.478 448.073 283.053 452.761 279.306 452.761C278.586 452.761 276.918 450.728 275.6 448.243C272.817 442.997 267.396 437.811 261.295 434.557C257.685 432.632 255.485 432.267 247.5 432.267C239.515 432.267 237.315 432.632 233.705 434.557C227.57 437.829 222.172 443.011 219.398 448.293L217 452.859L212 452.205C209.25 451.844 201.907 450.247 195.682 448.655C189.458 447.063 184.058 445.765 183.682 445.769C183.307 445.774 182.868 448.136 182.707 451.019C182.546 453.902 182.321 457.611 182.207 459.261L182 462.261L195 465.399C202.15 467.124 209.743 468.924 211.872 469.399C215.37 470.178 215.929 470.758 217.652 475.404C220.115 482.042 225.898 488.558 232.645 492.295C237.527 494.999 238.839 495.261 247.5 495.261C256.161 495.261 257.473 494.999 262.355 492.295C268.951 488.641 274.841 482.111 277.114 475.928C278.058 473.361 279.094 470.952 279.415 470.574C279.737 470.196 284.725 468.931 290.5 467.762C316.392 462.521 338.313 454.217 361.25 440.958L367.5 437.345V427.553C367.5 422.168 367.163 417.787 366.75 417.819C366.337 417.851 363.075 419.909 359.5 422.392Z" fill="#13478C"/>
<path d="M215.872 264.011C216.235 268.549 217.052 275.749 217.689 280.011L218.846 287.761H276.154L277.311 280.011C277.948 275.749 278.765 268.549 279.128 264.011L279.788 255.761H215.212L215.872 264.011Z" fill="#FF9668"/>
<path d="M217.66 215.511C217.008 219.773 216.189 226.974 215.839 231.511L215.204 239.761H279.788L279.128 231.511C278.765 226.974 277.948 219.773 277.311 215.511L276.154 207.761H218.846L217.66 215.511Z" fill="#FF9668"/>
<path d="M166.144 214.011C163.305 220.886 160.99 228.959 159.98 235.511L159.324 239.761H200.5V233.985C200.5 228.116 202.141 212.701 203.106 209.511C203.595 207.891 202.338 207.761 186.18 207.761H168.725L166.144 214.011Z" fill="#FF9668"/>
<path d="M291.894 209.511C292.859 212.701 294.5 228.116 294.5 233.985V239.761H335.676L335.02 235.511C334.01 228.959 331.695 220.886 328.856 214.011L326.275 207.761H308.82C292.662 207.761 291.405 207.891 291.894 209.511Z" fill="#FF9668"/>
<path d="M240.366 162.206C235.889 165.248 230.288 173.574 226.438 182.912C224.822 186.83 223.5 190.424 223.5 190.899C223.5 191.373 234.3 191.761 247.5 191.761C260.7 191.761 271.5 191.373 271.5 190.899C271.5 188.723 265.255 175.23 261.929 170.219C257.45 163.471 252.331 159.761 247.5 159.761C245.397 159.761 242.506 160.752 240.366 162.206Z" fill="#FF9668"/>
<path d="M277.5 165.145C277.5 165.329 279.026 168.805 280.891 172.87C282.757 176.935 285.089 182.849 286.074 186.011L287.865 191.761H315.932L310.466 186.173C304.125 179.69 295.255 173.133 287.688 169.332C281.902 166.427 277.5 164.617 277.5 165.145Z" fill="#FF9668"/>
<path d="M209.477 168.339C200.244 172.764 191.615 178.934 184.534 186.173L179.068 191.761H207.135L208.926 186.011C209.911 182.849 212.247 176.927 214.117 172.852C215.987 168.778 217.371 165.298 217.193 165.12C217.015 164.942 213.542 166.391 209.477 168.339Z" fill="#FF9668"/>
<path d="M159.98 260.011C160.99 266.563 163.305 274.636 166.144 281.511L168.725 287.761H186.18C202.338 287.761 203.595 287.631 203.106 286.011C202.141 282.821 200.5 267.406 200.5 261.537V255.761H159.324L159.98 260.011Z" fill="#FF9668"/>
<path d="M294.5 261.537C294.5 267.406 292.859 282.821 291.894 286.011C291.405 287.631 292.662 287.761 308.82 287.761H326.275L328.856 281.511C331.695 274.636 334.01 266.563 335.02 260.011L335.676 255.761H294.5V261.537Z" fill="#FF9668"/>
<path d="M223.5 304.623C223.5 306.799 229.745 320.292 233.071 325.303C242.272 339.164 252.728 339.164 261.929 325.303C265.255 320.292 271.5 306.799 271.5 304.623C271.5 304.149 260.7 303.761 247.5 303.761C234.3 303.761 223.5 304.149 223.5 304.623Z" fill="#FF9668"/>
<path d="M184.534 309.349C191.615 316.588 200.244 322.758 209.477 327.183C213.542 329.131 217.015 330.58 217.193 330.402C217.371 330.224 215.987 326.744 214.117 322.67C212.247 318.595 209.911 312.674 208.926 309.511L207.135 303.761H179.068L184.534 309.349Z" fill="#FF9668"/>
<path d="M286.074 309.511C285.089 312.674 282.753 318.595 280.883 322.67C279.013 326.744 277.629 330.224 277.807 330.402C277.985 330.58 281.458 329.131 285.523 327.183C294.756 322.758 303.385 316.588 310.466 309.349L315.932 303.761H287.865L286.074 309.511Z" fill="#FF9668"/>
<path d="M239.5 415.761H255.5V367.761H239.5V415.761Z" fill="#FF9668"/>
<path d="M79.5 255.761H127.5V239.761H79.5V255.761Z" fill="#FF9668"/>
<path d="M367.5 255.761H415.5V239.761H367.5V255.761Z" fill="#FF9668"/>
<path d="M239.5 127.761H255.5V79.7611H239.5V127.761Z" fill="#FF9668"/>
<path d="M43.645 154.644C37.045 168.543 31.194 186.38 27.933 202.542C26.521 209.537 25.059 215.524 24.683 215.846C24.307 216.167 21.9 217.203 19.333 218.147C13.15 220.42 6.62 226.31 2.966 232.906C0.262 237.788 0 239.1 0 247.761C0 256.422 0.262 257.734 2.966 262.616C6.703 269.363 13.219 275.146 19.857 277.609C24.503 279.332 25.083 279.891 25.862 283.389C26.337 285.518 28.137 293.111 29.862 300.261L33 313.261L37.5 312.803C39.975 312.552 43.688 312.327 45.75 312.303C47.813 312.28 49.5 311.954 49.5 311.579C49.5 311.203 48.198 305.803 46.606 299.579C45.014 293.354 43.417 286.011 43.056 283.261L42.402 278.261L46.968 275.863C52.25 273.089 57.432 267.691 60.704 261.556C62.629 257.946 62.994 255.746 62.994 247.761C62.994 239.776 62.629 237.576 60.704 233.966C57.432 227.831 52.25 222.433 46.968 219.659L42.402 217.261L43.06 212.261C45.111 196.699 53.053 172.652 62.135 154.511L67.517 143.761H48.813L43.645 154.644Z" fill="#FF9668"/>
<path d="M359.5 422.392C349.929 429.041 326.721 440.139 313 444.629C302.478 448.073 283.053 452.761 279.306 452.761C278.586 452.761 276.918 450.728 275.6 448.243C272.817 442.997 267.396 437.811 261.295 434.557C257.685 432.632 255.485 432.267 247.5 432.267C239.515 432.267 237.315 432.632 233.705 434.557C227.57 437.829 222.172 443.011 219.398 448.293L217 452.859L212 452.205C209.25 451.844 201.907 450.247 195.682 448.655C189.458 447.063 184.058 445.765 183.682 445.769C183.307 445.774 182.868 448.136 182.707 451.019C182.546 453.902 182.321 457.611 182.207 459.261L182 462.261L195 465.399C202.15 467.124 209.743 468.924 211.872 469.399C215.37 470.178 215.929 470.758 217.652 475.404C220.115 482.042 225.898 488.558 232.645 492.295C237.527 494.999 238.839 495.261 247.5 495.261C256.161 495.261 257.473 494.999 262.355 492.295C268.951 488.641 274.841 482.111 277.114 475.928C278.058 473.361 279.094 470.952 279.415 470.574C279.737 470.196 284.725 468.931 290.5 467.762C316.392 462.521 338.313 454.217 361.25 440.958L367.5 437.345V427.553C367.5 422.168 367.163 417.787 366.75 417.819C366.337 417.851 363.075 419.909 359.5 422.392Z" fill="#FF9668"/>
<path d="M448.017 193.816C448.988 196.875 452.471 213.977 452.487 215.763C452.494 216.589 450.467 218.343 447.982 219.661C442.736 222.444 437.55 227.865 434.296 233.966C432.371 237.576 432.006 239.776 432.006 247.761C432.006 255.746 432.371 257.946 434.296 261.556C437.55 267.657 442.736 273.078 447.982 275.861C450.467 277.179 452.5 278.771 452.5 279.399C452.5 280.027 451.593 284.978 450.485 290.401C448.009 302.518 443.558 317.093 439.121 327.616L435.775 335.547L444.267 336.255C450.903 336.808 452.945 336.667 453.617 335.612C457.247 329.904 466.639 298.366 468.085 287.029C468.903 280.616 469.748 279.54 475.667 277.37C481.846 275.105 488.378 269.216 492.034 262.616C494.738 257.734 495 256.422 495 247.761C495 239.1 494.738 237.788 492.034 232.906C488.298 226.161 481.783 220.377 475.143 217.91L474.795 217.781C473.022 217.124 471.84 216.686 470.959 215.908C469.194 214.348 468.639 211.421 466.97 202.63L466.805 201.761L465 192.261L456.17 191.971C447.551 191.688 447.356 191.732 448.017 193.816Z" fill="#FF9668"/>
<path d="M237.382 1.08206C228.089 4.55506 220.625 11.7731 217.711 20.1041C216.77 22.7951 215.471 25.2041 214.824 25.4571C214.177 25.7111 208.777 26.8951 202.824 28.0901L192 30.2611L191.71 39.0911C191.427 47.7101 191.471 47.9051 193.555 47.2441C196.614 46.2731 213.716 42.7901 215.502 42.7741C216.328 42.7671 218.082 44.7941 219.4 47.2791C222.183 52.5251 227.604 57.7111 233.705 60.9651C237.315 62.8901 239.515 63.2551 247.5 63.2551C255.485 63.2551 257.685 62.8901 261.295 60.9651C267.396 57.7111 272.817 52.5251 275.6 47.2791C276.918 44.7941 278.586 42.7611 279.306 42.7611C283.053 42.7611 302.478 47.4491 313 50.8931C326.397 55.2771 349.413 66.2351 359.843 73.1951C363.607 75.7061 366.869 77.7611 367.093 77.7611C367.317 77.7611 367.5 73.3541 367.5 67.9691V58.1771L361.25 54.5641C338.313 41.3051 316.392 33.0011 290.5 27.7601C284.725 26.5911 279.737 25.3261 279.415 24.9481C279.094 24.5701 278.058 22.1611 277.114 19.5941C274.831 13.3861 268.926 6.85506 262.368 3.28606C257.983 0.899057 255.588 0.320057 249.012 0.0540575C243.963 -0.149943 239.662 0.230057 237.382 1.08206Z" fill="#FF9668"/>
</svg>
