<svg width="512" height="360" viewBox="0 0 512 360" fill="none" xmlns="http://www.w3.org/2000/svg">
<path fill-rule="evenodd" clip-rule="evenodd" d="M33.233 1.41016C30.886 2.14316 28.25 3.01816 27.375 3.35416C26.211 3.80016 55.148 33.4592 135.042 113.704C195.134 174.061 245.632 224.307 247.258 225.361C249.306 226.688 251.996 227.277 256 227.277C259.989 227.277 262.715 226.683 264.786 225.361C268.971 222.689 486.229 4.20116 485.275 3.62416C484.849 3.36616 482.056 2.43216 479.068 1.54916C474.152 0.0961643 452.966 -0.0498377 255.568 0.0111623C76.852 0.0661623 36.73 0.318164 33.233 1.41016ZM2.047 31.5262C0.0249999 38.0742 0 39.8872 0 179.944C0 320.001 0.0249999 321.814 2.047 328.362C3.488 333.026 4.451 334.753 5.297 334.19C5.959 333.75 40.918 298.864 82.985 256.667L159.47 179.944L82.985 103.221C40.918 61.0242 5.959 26.1382 5.297 25.6982C4.451 25.1352 3.488 26.8622 2.047 31.5262ZM429.999 102.445L352.503 179.946L430.162 257.604L507.821 335.263L509.91 328.498C511.988 321.772 512 320.933 512 179.944C512 40.0492 511.973 38.0662 509.96 31.5492C508.838 27.9162 507.824 24.9442 507.707 24.9442C507.591 24.9442 472.622 59.8192 429.999 102.445ZM103.111 278.333C60.572 320.875 26.157 355.919 26.633 356.208C27.11 356.497 29.944 357.456 32.932 358.339C37.845 359.791 59.124 359.944 256 359.944C452.876 359.944 474.155 359.791 479.068 358.339C482.056 357.456 484.89 356.497 485.367 356.208C485.843 355.919 451.428 320.875 408.889 278.333L331.546 200.985L307.023 225.303C281.554 250.559 278.993 252.53 267.744 255.524C261.61 257.157 251.343 257.32 245.112 255.883C233.978 253.317 230.636 250.771 204.977 225.315L180.454 200.985L103.111 278.333Z" fill="#FFEC79"/>
</svg>
