<svg width="512" height="512" viewBox="0 0 512 512" fill="none" xmlns="http://www.w3.org/2000/svg">
<path fill-rule="evenodd" clip-rule="evenodd" d="M85.3809 1.83719C82.2329 2.82619 77.5079 4.8712 74.8809 6.3802C67.8309 10.4322 14.8719 63.7502 10.3339 71.3662C-11.1531 107.419 1.20288 169.95 44.2759 243.128C94.2709 328.067 183.191 417.013 269.105 468.023C307.682 490.927 341.546 504.477 374.073 510.025C388.384 512.465 410.047 512.183 420.105 509.424C427.963 507.269 437.766 502.662 442.952 498.687C449.293 493.826 495.293 448.035 499.581 442.315C512.463 425.129 514.718 403.894 505.587 385.763C504.097 382.807 489.861 367.799 462.331 340.163C430.412 308.121 420.051 298.311 415.7 296.008C395.824 285.488 372.339 288.687 357.605 303.921C352.993 308.69 351.164 311.799 345.295 324.856C334.789 348.228 309.437 358.564 283.736 349.953C260.272 342.092 234.61 324.9 210.512 300.896C184.676 275.162 169.741 252.953 160.822 227.007C154.638 209.016 155.994 195.539 165.358 181.93C170.532 174.41 178.072 168.83 189.862 163.796C206.603 156.647 216.378 145.509 220.178 129.253C222.913 117.552 220.36 103.36 213.645 92.9372C212.022 90.4172 192.787 70.5522 170.9 48.7932C128.216 6.35719 126.458 4.92019 112.961 1.44019C104.949 -0.624805 92.6549 -0.448805 85.3809 1.83719Z" fill="#FFEC79"/>
</svg>
