<svg width="512" height="491" viewBox="0 0 512 491" fill="none" xmlns="http://www.w3.org/2000/svg">
<path fill-rule="evenodd" clip-rule="evenodd" d="M247.911 0.659217C246.532 1.11122 244.023 2.19522 242.335 3.06822C234.742 6.99422 233.557 9.34921 202.411 82.3572C186.004 120.817 172.513 152.389 172.432 152.517C172.351 152.645 138.114 155.852 96.3507 159.644C43.5677 164.437 19.2917 167.01 16.7267 168.085C11.1297 170.431 4.4217 177.183 1.9267 182.982C0.183697 187.034 -0.208303 189.537 0.0916971 194.709C0.832697 207.498 -1.0273 205.517 62.7987 261.494C94.4887 289.286 120.323 312.534 120.209 313.155C120.095 313.776 112.757 346.234 103.903 385.284C95.0487 424.334 87.5507 458.346 87.2407 460.867C85.4077 475.785 99.0437 490.784 114.44 490.784C116.177 490.784 119.6 490.182 122.045 489.446C124.491 488.71 155.617 470.697 191.214 449.417L255.936 410.726L320.677 449.428C356.284 470.714 387.401 488.727 389.826 489.457C392.251 490.187 395.657 490.784 397.394 490.784C412.79 490.784 426.426 475.785 424.593 460.867C424.283 458.346 416.785 424.334 407.931 385.284C399.077 346.234 391.739 313.778 391.625 313.159C391.511 312.54 417.343 289.296 449.031 261.506C512.861 205.527 511 207.508 511.742 194.709C512.042 189.537 511.65 187.034 509.907 182.982C507.411 177.18 500.699 170.427 495.107 168.09C492.556 167.024 467.97 164.407 415.445 159.61C373.66 155.795 339.43 152.585 339.378 152.478C339.326 152.371 326.537 122.359 310.958 85.7842C295.38 49.2092 281.749 17.4842 280.667 15.2842C278.073 10.0042 273.351 5.09222 268.417 2.53822C264.068 0.287217 252.326 -0.788783 247.911 0.659217Z" fill="#FFEC79"/>
</svg>
