<svg width="16" height="16" viewBox="0 0 16 16" fill="none" xmlns="http://www.w3.org/2000/svg">
<rect width="16" height="16" rx="3" fill="#042F6F"/>
<path d="M5.2343 2.95226C5.88567 2.45061 6.58444 2.14901 7.38857 2.02242C7.50928 2.00344 7.84463 1.99479 8.13387 2.00325C8.88438 2.02522 9.40432 2.15478 10.0497 2.48067C10.5088 2.71249 11.2125 3.25666 11.139 3.32299C11.0941 3.3635 9.97709 3.81816 9.92244 3.81816C9.90152 3.81816 9.80809 3.76684 9.71485 3.70414C9.45599 3.53008 9.08591 3.37506 8.72398 3.28923C8.4494 3.22406 8.31535 3.21447 7.88971 3.22937C7.32565 3.24917 7.07453 3.30424 6.65971 3.49923C5.94687 3.83422 5.42603 4.34219 5.09177 5.02837C4.37844 6.49283 4.84767 8.22649 6.19934 9.12018C6.51987 9.33211 6.52245 9.34207 6.33756 9.65227C6.10965 10.0347 5.39611 10.7103 5.28957 10.6446C5.22049 10.6021 4.56303 9.57505 4.31032 9.11495C3.69602 7.99649 3.45506 7.136 3.50842 6.25131C3.58878 4.9187 4.20136 3.74779 5.2343 2.95226Z" fill="#FFC3A8"/>
<path d="M7.89916 5.05528C9.41255 4.42835 10.8621 3.82654 11.1203 3.71787C11.3786 3.60924 11.6025 3.52 11.618 3.51951C11.6628 3.5182 11.6511 3.56641 11.5773 3.68714C11.5395 3.7489 10.9713 4.86508 10.3147 6.16751L9.12082 8.53556L8.98425 8.45358C8.90912 8.4085 8.63954 8.23983 8.38514 8.07881C8.13075 7.91781 7.91101 7.78751 7.89681 7.78926C7.88261 7.79102 7.6964 7.99315 7.48298 8.23847C7.26963 8.48376 7.0815 8.68447 7.06498 8.68447C7.0484 8.68447 7.0486 8.61288 7.06531 8.5254C7.222 7.70556 7.30207 7.34756 7.33861 7.30358C7.36237 7.27491 7.93136 6.77079 8.6031 6.1832C9.27476 5.59564 9.98492 4.96975 10.1812 4.79243C10.3775 4.61507 10.7192 4.31418 10.9406 4.1238C11.3755 3.7498 11.5129 3.60078 11.2128 3.8286C10.9398 4.03575 10.421 4.40567 9.46749 5.07284C9.00262 5.39811 8.21088 5.96055 7.70798 6.32274L6.79378 6.98126L6.81721 7.21802C6.83674 7.41528 6.91551 7.92112 7.00749 8.44001C7.0201 8.51097 7.01418 8.53804 6.99124 8.51488C6.97145 8.49492 6.90118 8.18379 6.83511 7.82352C6.76905 7.46321 6.70186 7.13338 6.68591 7.09056C6.66635 7.03816 6.41063 6.88545 5.9025 6.62264C5.48765 6.40813 5.14803 6.22417 5.14789 6.21388C5.14773 6.20359 6.38577 5.68222 7.89916 5.05528Z" fill="#FFEE8A"/>
<path d="M11.0895 5.42611L11.4148 4.75349C11.5937 4.38358 11.7567 4.08628 11.7771 4.09284C11.8393 4.1129 12.0448 4.48199 12.1711 4.80039C12.4998 5.62957 12.5832 6.49787 12.4124 7.315C12.1504 8.56843 11.2203 10.1335 9.39604 12.3904C8.80282 13.1243 8.0457 14 8.00436 14C7.89589 14 5.59831 11.2052 5.59831 11.0732C5.59831 11.0538 5.65322 10.9932 5.72038 10.9384C6.42805 10.3613 7.34593 9.24682 7.81566 8.39437C7.88659 8.26572 7.95762 8.16043 7.97351 8.16043C7.9894 8.16043 8.00241 8.49962 8.00241 8.91424V9.66809L8.29354 9.64267C9.43285 9.54324 10.4207 8.88105 10.9237 7.87966C11.2607 7.20875 11.3492 6.28604 11.1424 5.6011L11.0895 5.42611Z" fill="#FFC3A8"/>
</svg>
