<svg width="140" height="45" viewBox="0 0 140 45" fill="none" xmlns="http://www.w3.org/2000/svg">
<path d="M110.654 30.0672C110.268 29.1429 110.479 28.3627 111.266 27.8118C112.65 26.842 114.718 27.7785 114.718 29.3751C114.718 31.5171 111.489 32.0669 110.654 30.0672Z" fill="#FFC3A8"/>
<path d="M60.4854 44.8971V28.1289H62.2976V44.8971H60.4854Z" fill="#FFEE8A"/>
<path d="M0 30.3005C0 29.8747 0.12754 29.4703 0.283172 29.4016C0.439029 29.3332 0.923139 29.3234 1.35922 29.3803C1.79531 29.4372 4.57333 29.4848 7.53236 29.4861L12.9126 29.4886V31.0748H7.24036L7.36246 44.7839L5.43689 44.9233V31.0748H0V30.3005Z" fill="#FFEE8A"/>
<path d="M132.874 33.1296C132.802 33.0136 132.81 32.3508 132.891 31.6567L133.04 30.395H136.375V33.3193L139.207 33.4541V35.9466L136.375 36.0815L136.379 38.7333C136.381 40.1917 136.457 41.4971 136.549 41.6342C136.929 42.2041 137.75 42.4434 138.467 42.1937C138.852 42.0593 139.184 41.9755 139.204 42.007C139.299 42.159 140 44.1361 140 44.2542C140 44.5904 138.402 45.0053 137.168 44.9897C135.364 44.9668 134.05 44.2984 133.433 43.0904C133.043 42.3245 132.977 41.7557 132.977 39.1281V36.0599H131.165V33.3408H132.085C132.595 33.3408 132.946 33.2467 132.874 33.1296Z" fill="#FFC3A8"/>
<path d="M14.3243 39.123C14.291 36.0095 14.3132 33.3327 14.3739 33.1748C14.4344 33.0169 14.844 32.8875 15.2841 32.8875C16.0693 32.8875 16.084 32.9046 16.084 33.8139V34.7406L16.8203 34.1194C17.7393 33.3444 18.8079 32.8875 19.7014 32.8875C20.3518 32.8875 20.3882 32.9356 20.3882 33.7938C20.3882 34.6653 20.3599 34.7002 19.652 34.7006C18.6933 34.7011 17.4827 35.3292 16.893 36.132C16.4723 36.7046 16.4121 37.1856 16.3106 40.7774L16.1973 44.7837H14.385L14.3243 39.123Z" fill="#FFEE8A"/>
<path d="M35.3089 37.6521C34.2331 35.2185 33.4015 33.1453 33.461 33.0449C33.5206 32.9447 33.937 32.8938 34.386 32.9317L35.2024 33.0008L37.2533 37.5787C38.3812 40.0967 39.363 42.212 39.4348 42.2793C39.5069 42.3468 40.4726 40.2611 41.5808 37.6446L43.5959 32.8875H44.4517C44.9918 32.8875 45.3028 32.9919 45.2949 33.1707C45.2881 33.3266 44.1817 36.0032 42.836 39.1189L40.3897 44.7837L38.489 44.9243L37.8771 43.5005C37.5405 42.7174 36.385 40.0858 35.3089 37.6521Z" fill="#FFEE8A"/>
<path d="M111.003 44.9171V32.9614L114.288 33.0008V44.7838L111.003 44.9171Z" fill="#FFC3A8"/>
<path d="M121.289 34.0406C121.589 33.759 122.226 33.3889 122.705 33.2181C125.137 32.3504 127.851 33.2496 128.89 35.267C129.446 36.3481 129.466 36.5321 129.466 40.5854V44.7838H126.068L125.955 40.909C125.874 38.1595 125.754 36.9291 125.54 36.6719C125.008 36.0313 123.743 35.7456 122.753 36.042C121.278 36.4843 121.1 36.9928 120.971 41.147L120.858 44.7838H117.46L117.339 33.1141H120.744V34.5527L121.289 34.0406Z" fill="#FFC3A8"/>
<path fill-rule="evenodd" clip-rule="evenodd" d="M24.5503 33.304C23.9115 33.5247 23.1204 33.8813 22.7924 34.0964C22.2172 34.4732 22.2084 34.5111 22.5439 35.1603C22.7353 35.5303 22.9344 35.8333 22.9865 35.8333C23.0384 35.8333 23.4505 35.6153 23.9019 35.3488C25.0258 34.6855 27.5091 34.5052 28.4952 35.015C29.3348 35.4494 29.5674 35.8323 29.7833 37.1362L29.9428 38.0992L27.6008 38.1006C24.7764 38.1019 23.7708 38.353 22.7165 39.3195C22.052 39.9285 21.8994 40.2437 21.8192 41.1723C21.6474 43.161 22.7903 44.5054 24.9995 44.9137C26.245 45.1437 27.9959 44.7934 29.0337 44.1065L29.8741 43.5503L29.945 44.1671C30.0067 44.7009 30.1306 44.7934 30.8657 44.8541L31.7152 44.9246V40.8732C31.7152 36.2053 31.4502 34.863 30.3451 33.9328C29.0471 32.8403 26.6453 32.5795 24.5503 33.304ZM26.5551 43.3737C28.5797 43.2894 29.6927 42.3468 29.7514 40.667L29.7896 39.5721L27.8641 39.5291C26.805 39.5055 25.8366 39.522 25.712 39.566C25.5874 39.61 25.2023 39.7083 24.8559 39.7849C24.4343 39.878 24.1051 40.1785 23.8589 40.6949C23.1127 42.26 24.3271 43.4666 26.5551 43.3737Z" fill="#FFEE8A"/>
<path fill-rule="evenodd" clip-rule="evenodd" d="M49.7821 33.2312C45.4915 34.8075 44.6866 41.1295 48.4379 43.7889C50.6853 45.3823 54.1969 45.3275 56.0805 43.6699L56.8746 42.9711L55.7682 41.6115L55.2385 42.093C53.1544 43.9874 49.6029 43.4383 48.3574 41.0294C48.1219 40.5736 47.9569 40.2741 48.0379 40.0748C48.1977 39.6819 49.313 39.6778 52.7264 39.6333L57.4271 39.5721L57.4038 38.3258C57.3784 36.956 56.6215 35.182 55.6938 34.3178C54.2932 33.0128 51.683 32.5329 49.7821 33.2312ZM55.7281 37.8309C55.7281 37.1738 54.7231 35.5826 54.0424 35.1616C53.0286 34.5351 51.5265 34.3889 50.4044 34.8081C49.906 34.9944 49.4734 35.1482 49.443 35.1501C49.1897 35.1657 48.0258 37.1505 48.0258 37.5667V38.0992H51.8769C54.6928 38.0992 55.7281 38.0272 55.7281 37.8309Z" fill="#FFEE8A"/>
<path fill-rule="evenodd" clip-rule="evenodd" d="M81.7798 44.9162L85.2912 44.7838L85.4207 40.3652H87.4403C90.079 40.3652 91.515 40.0382 92.817 39.1407C94.2901 38.1253 94.9204 36.865 94.914 34.9479C94.9079 33.1168 94.3878 31.8701 93.2331 30.9179C91.7767 29.7172 90.6112 29.4885 85.9447 29.4885H81.7798V44.9162ZM90.3178 36.9771C91.7137 36.1258 91.7198 33.8387 90.3289 32.8061C89.8298 32.4359 89.2676 32.3226 87.5538 32.2476L85.4044 32.1535V37.4194L87.4999 37.4185C89.1756 37.4178 89.7401 37.3295 90.3178 36.9771Z" fill="#FFC3A8"/>
<path fill-rule="evenodd" clip-rule="evenodd" d="M100.212 33.1342C97.7568 33.846 95.9776 36.2375 95.9638 38.8443C95.954 40.6727 96.3589 41.8034 97.446 42.9831C100.25 46.0251 105.794 45.5477 107.937 42.0792C108.879 40.5553 109.019 38.2703 108.276 36.543C107.663 35.1172 106.18 33.742 104.72 33.2444C103.588 32.8583 101.352 32.8036 100.212 33.1342ZM105.335 38.9562C105.326 37.7013 104.554 36.3136 103.655 35.9379C102.573 35.4854 101.741 35.5233 100.852 36.0657C98.9101 37.2499 99.0098 40.7903 101.014 41.827C103.064 42.887 105.351 41.3672 105.335 38.9562Z" fill="#FFC3A8"/>
<path d="M63.9092 2.87705C65.8772 1.36144 67.9884 0.450217 70.4179 0.0677227C70.7826 0.0103826 71.7958 -0.0157456 72.6697 0.00981437C74.9372 0.0762023 76.5081 0.467631 78.4579 1.45225C79.845 2.15266 81.9713 3.79675 81.7492 3.99716C81.6135 4.11953 78.2386 5.49321 78.0735 5.49321C78.0103 5.49321 77.728 5.33815 77.4463 5.14872C76.6642 4.62282 75.5461 4.15448 74.4526 3.89515C73.623 3.69825 73.218 3.66929 71.932 3.71431C70.2278 3.77413 69.4691 3.9405 68.2158 4.52962C66.0621 5.54173 64.4885 7.07645 63.4786 9.14963C61.3234 13.5742 62.7411 18.8121 66.8249 21.5122C67.7933 22.1525 67.8011 22.1826 67.2425 23.1198C66.5539 24.2751 64.3981 26.3164 64.0762 26.118C63.8675 25.9895 61.8811 22.8865 61.1176 21.4964C59.2616 18.1172 58.5336 15.5174 58.6948 12.8445C58.9376 8.81826 60.7884 5.28059 63.9092 2.87705Z" fill="#FFC3A8"/>
<path d="M71.9606 9.23093C76.533 7.33678 80.9124 5.51852 81.6926 5.1902C82.4729 4.862 83.1496 4.59237 83.1964 4.5909C83.3317 4.58694 83.2963 4.73261 83.0733 5.09735C82.9592 5.28396 81.2426 8.65628 79.2588 12.5913L75.6516 19.7459L75.239 19.4982C75.012 19.362 74.1975 18.8524 73.4289 18.3659C72.6603 17.8795 71.9964 17.4858 71.9535 17.4911C71.9106 17.4964 71.348 18.1071 70.7032 18.8483C70.0586 19.5894 69.4902 20.1958 69.4403 20.1958C69.3902 20.1958 69.3908 19.9795 69.4413 19.7152C69.9147 17.2382 70.1566 16.1566 70.267 16.0237C70.3388 15.9371 72.0579 14.414 74.0874 12.6387C76.1167 10.8635 78.2623 8.97251 78.8553 8.43676C79.4483 7.90091 80.4808 6.99184 81.1497 6.41663C82.4638 5.28667 82.8789 4.83643 81.9721 5.52474C81.1474 6.15062 79.5797 7.26825 76.699 9.28397C75.2945 10.2667 72.9024 11.966 71.383 13.0603L68.6209 15.0499L68.6917 15.7652C68.7507 16.3612 68.9887 17.8895 69.2666 19.4572C69.3047 19.6716 69.2868 19.7534 69.2175 19.6834C69.1577 19.6231 68.9454 18.6831 68.7458 17.5946C68.5462 16.506 68.3432 15.5095 68.295 15.3801C68.2359 15.2218 67.4633 14.7604 65.9281 13.9664C64.6747 13.3183 63.6486 12.7625 63.6482 12.7314C63.6477 12.7003 67.3882 11.1251 71.9606 9.23093Z" fill="#FFEE8A"/>
<path d="M81.5996 10.3513L82.5824 8.31912C83.1228 7.2015 83.6154 6.30328 83.6769 6.32308C83.8648 6.3837 84.4857 7.49882 84.8673 8.46082C85.8606 10.966 86.1124 13.5894 85.5964 16.0582C84.8049 19.8452 81.9947 24.5738 76.4831 31.3924C74.6908 33.6097 72.4033 36.2556 72.2784 36.2556C71.9507 36.2556 65.009 27.8118 65.009 27.413C65.009 27.3543 65.1749 27.171 65.3778 27.0055C67.5159 25.2619 70.2891 21.8948 71.7083 19.3193C71.9226 18.9306 72.1372 18.6125 72.1852 18.6125C72.2332 18.6125 72.2725 19.6373 72.2725 20.89V23.1676L73.1521 23.0908C76.5943 22.7904 79.579 20.7897 81.0985 17.7642C82.1167 15.7372 82.3843 12.9494 81.7593 10.88L81.5996 10.3513Z" fill="#FFC3A8"/>
</svg>
