<svg width="421" height="448" viewBox="0 0 421 448" fill="none" xmlns="http://www.w3.org/2000/svg">
<path fill-rule="evenodd" clip-rule="evenodd" d="M85.9991 1.88084C81.2559 4.03404 76.081 9.95779 74.7423 14.7676C74.215 16.6602 73.7842 24.1817 73.7842 31.4819C73.7842 46.7726 74.5062 50.1912 78.848 55.4513C86.7909 65.0768 101.827 65.529 110.302 56.3981C115.572 50.7182 116.07 48.5689 116.07 31.4819C116.07 14.395 115.572 12.2457 110.302 6.56577C104.298 0.0963345 94.2125 -1.84744 85.9991 1.88084ZM317.225 1.65077C312.914 3.919 308.944 7.87145 306.807 12.0245C305.189 15.1687 304.93 17.8548 304.93 31.4918C304.93 48.5679 305.428 50.7191 310.698 56.3981C319.173 65.529 334.209 65.0768 342.152 55.4513C343.883 53.3541 345.731 50.0889 346.258 48.1963C347.5 43.7345 347.5 19.2293 346.258 14.7676C344.919 9.95779 339.744 4.03404 335.001 1.88084C330.062 -0.361834 321.267 -0.474903 317.225 1.65077ZM29.9884 37.2507C14.6278 42.56 3.9395 54.785 1.07512 70.3205C0.43772 73.7794 0 89.2874 0 108.419V140.684H210.5H421L420.992 108.976C420.988 91.5359 420.525 74.4303 419.961 70.9615C417.733 57.2371 409.31 45.9412 396.635 39.6792C389.653 36.2301 388.488 35.9696 378.528 35.6284L367.883 35.2646L367.866 41.5178C367.826 55.9835 363.403 67.3876 354.607 75.7035C338.128 91.2813 313.033 91.3186 297.063 75.79C288.28 67.249 284.273 57.0218 284.273 43.141V35.4819H210.5H136.727V43.141C136.727 57.1093 132.73 67.2352 123.773 75.9552C107.962 91.3481 82.8268 91.238 66.3931 75.7035C57.6209 67.4102 53.1739 55.9816 53.1335 41.6269L53.1168 35.4819L44.0181 35.5144C38.013 35.535 33.2433 36.1259 29.9884 37.2507ZM0 286.575C0 370.088 0.334438 409.635 1.07512 413.653C3.55981 427.13 11.9483 438.16 24.3846 444.304L31.8662 448H210.5H389.134L396.615 444.304C409.311 438.032 417.732 426.745 419.961 413.012C420.63 408.89 420.988 364.89 420.992 286.018L421 165.331H210.5H0V286.575ZM115.111 220.636C117.669 221.929 120.718 224.619 122.451 227.111L125.415 231.374V249.318V267.26L122.599 271.322C120.839 273.86 117.907 276.318 114.782 277.875C110.107 280.203 108.834 280.365 95.1893 280.365C79.269 280.365 75.6492 279.53 70.4526 274.66C64.957 269.509 63.9802 265.695 63.9802 249.394C63.9802 233.104 65.0711 228.823 70.5303 223.699C75.4761 219.055 78.0473 218.503 94.9591 218.462C109.41 218.427 111.103 218.609 115.111 220.636ZM230.117 220.362C235.428 223.069 239.744 228.683 241.07 234.605C241.721 237.513 242.027 244.912 241.804 252.359C241.372 266.739 239.812 271.338 233.87 275.748C228.692 279.591 224.775 280.365 210.5 280.365C196.225 280.365 192.308 279.591 187.13 275.748C181.188 271.338 179.628 266.739 179.196 252.359C178.743 237.225 179.885 231.028 184.06 225.965C189.592 219.256 192.183 218.516 210.293 218.467C224.351 218.429 226.783 218.662 230.117 220.362ZM348.019 221.73C350.553 223.487 353.016 226.424 354.572 229.543C356.91 234.233 357.062 235.451 357.041 249.341C357.018 265.695 356.038 269.513 350.547 274.66C345.351 279.53 341.731 280.365 325.811 280.365C312.166 280.365 310.893 280.203 306.217 277.875C303.093 276.318 300.161 273.86 298.401 271.322L295.585 267.26V249.318V231.374L298.536 227.187C300.159 224.883 303.479 221.944 305.914 220.656C310.157 218.411 311.036 218.326 327.15 218.614C343.83 218.913 343.991 218.937 348.019 221.73ZM114.782 335.948C117.907 337.504 120.839 339.962 122.599 342.501L125.415 346.563V364.505V382.448L122.464 386.636C120.841 388.939 117.521 391.878 115.086 393.166C110.843 395.412 109.964 395.496 93.8496 395.208C77.1699 394.909 77.0086 394.886 72.9805 392.092C70.4467 390.336 67.9836 387.399 66.4285 384.28C64.0992 379.607 63.9369 378.335 63.9369 364.696C63.9369 348.783 64.772 345.165 69.645 339.97C74.7934 334.482 78.6139 333.503 94.9748 333.479C108.872 333.459 110.09 333.611 114.782 335.948ZM227.321 334.577C232.394 336.274 236.837 339.999 239.248 344.576C241.085 348.062 241.48 350.666 241.804 361.464C242.26 376.697 241.123 382.786 236.854 387.962C231.573 394.367 228.032 395.353 210.215 395.377C192.582 395.402 189.567 394.536 184.065 387.864C179.884 382.794 178.743 376.603 179.196 361.464C179.52 350.666 179.915 348.062 181.752 344.576C184.122 340.077 189.119 335.762 193.468 334.458C197.671 333.196 223.467 333.288 227.321 334.577ZM344.768 335.322C346.932 336.323 349.896 338.415 351.355 339.97C356.228 345.165 357.063 348.783 357.063 364.696C357.063 378.335 356.901 379.607 354.572 384.28C353.016 387.399 350.553 390.336 348.019 392.092C343.991 394.886 343.83 394.909 327.15 395.208C311.036 395.496 310.157 395.412 305.914 393.166C303.479 391.878 300.159 388.939 298.536 386.636L295.585 382.448V364.505V346.563L298.401 342.501C300.161 339.962 303.093 337.504 306.217 335.948C310.91 333.611 312.128 333.459 326.025 333.479C338.335 333.497 341.497 333.808 344.768 335.322Z" fill="#FFEC79"/>
</svg>
