<svg width="427" height="512" viewBox="0 0 427 512" fill="none" xmlns="http://www.w3.org/2000/svg">
<path fill-rule="evenodd" clip-rule="evenodd" d="M194.069 0.242409C172.645 4.25841 163.54 7.29841 150.436 14.8104C119.305 32.6564 97.6656 61.3314 89.9156 95.0094C87.2966 106.387 86.3765 127.837 87.9885 139.945C89.4105 150.63 93.1156 163.776 97.3386 173.122C112.906 207.572 145.255 234.71 180.569 242.945C226.935 253.758 272.991 239.231 303.268 204.245C320.443 184.397 328.905 166.169 332.569 141.122C336.281 115.757 332.616 91.6524 321.622 69.1224C307.785 40.7654 282.363 17.6324 253.056 6.73041C240.217 1.95441 231.221 0.444409 213.569 0.103409C204.219 -0.0775914 195.444 -0.0145914 194.069 0.242409ZM94.5686 248.23C62.8195 253.901 39.8895 271.803 23.6115 303.626C14.0375 322.342 8.14955 341.392 4.14155 366.622C-0.19845 393.937 -1.27645 426.649 1.61755 443.241C7.29355 475.791 30.1376 499.905 63.7025 508.778L72.5686 511.122H214.069H355.569L364.069 508.816C393.962 500.706 415.065 480.613 423.652 452.085C426.095 443.968 426.395 441.2 426.826 422.769C427.106 410.824 426.814 397.19 426.12 389.769C417.742 300.201 381.551 250.821 321.471 246.982C312.033 246.379 311.007 246.504 305.79 248.892C302.719 250.298 293.764 255.609 285.888 260.695C278.013 265.78 267.969 271.621 263.569 273.675C233.472 287.721 205.964 289.331 176.38 278.776C162.7 273.895 159.849 272.424 141.69 260.874C121.543 248.06 118.28 246.622 109.569 246.722C105.719 246.765 98.9686 247.444 94.5686 248.23Z" fill="#FFEC79"/>
</svg>
