<svg width="487" height="440" viewBox="0 0 487 440" fill="none" xmlns="http://www.w3.org/2000/svg">
<path fill-rule="evenodd" clip-rule="evenodd" d="M241.998 0.618564C199.382 5.24056 159.354 22.1266 126.998 49.1316C117.657 56.9276 100.955 73.8076 93.4148 83.0726C69.4818 112.482 54.1438 147.904 48.3598 187.123C46.3948 200.451 45.9318 241.133 47.6958 245.507C48.5228 247.556 50.3128 248.379 59.0368 250.724C64.7338 252.256 69.5608 253.343 69.7628 253.141C69.9648 252.939 69.6498 248.472 69.0638 243.213C67.7108 231.08 67.6898 206.562 69.0238 195.547C70.6428 182.165 73.8808 167.215 77.6538 155.694C81.5438 143.816 90.7978 124.305 97.0318 114.835L101.14 108.596L110.033 119.335C110.379 119.752 110.715 120.158 111.041 120.551C118.194 129.183 120.597 132.083 120.637 135.014C120.658 136.497 120.074 137.987 119.196 140.232C119.117 140.434 119.035 140.642 118.952 140.857C115.511 149.694 115.641 157.328 119.362 164.905C123.604 173.544 133.078 184.719 143.208 193.031C152.696 200.817 156.686 203.124 166.706 206.62C174.154 209.218 184.462 215.889 195.998 225.578C205.211 233.315 211.242 236.85 218.23 238.61C222.274 239.628 223.702 239.422 232.97 236.484L243.232 233.231L245.093 235.652C246.116 236.984 246.964 238.453 246.976 238.918C246.988 239.383 244.35 243.722 241.114 248.56C237.878 253.398 234.469 259.65 233.537 262.454C231.255 269.326 229.959 284.225 231.002 291.604C233.052 306.102 237.219 312.289 252.578 323.632C257.603 327.343 263.342 332.056 265.332 334.105C272.426 341.41 275.782 356.926 272.619 367.804C271.72 370.898 268.08 380.209 264.532 388.494C256.059 408.278 254.779 412.597 256.442 415.802L257.713 418.252L252.605 417.857C233.865 416.409 213.196 412.179 198.306 406.745L190.246 403.803L189.616 409.167C189.269 412.117 188.099 416.78 187.015 419.529C186.893 419.837 186.776 420.127 186.666 420.402C185.959 422.161 185.513 423.272 185.793 424.15C186.273 425.653 188.88 426.478 195.948 428.712C196.593 428.917 197.276 429.132 197.998 429.362C218.907 436.003 243.029 439.573 266.998 439.573C317.042 439.573 359.59 425.346 399.454 395.283C409.813 387.471 433.896 363.388 441.708 353.029C472.645 312.006 486.022 271.719 486.022 219.573C486.022 196.149 484.076 179.943 478.961 160.775C475.383 147.371 470.195 133.329 468.982 133.771C468.525 133.937 465.033 138.239 461.221 143.331L454.29 152.589L457.185 162.831C462.97 183.297 464.316 193.854 464.358 219.073C464.399 243.754 463.421 252.445 458.396 272.07C449.01 308.725 426.526 343.8 395.104 370.805C380.633 383.242 368.636 391.209 352.498 399.103C334.5 407.906 316.824 413.372 297.745 416.033L292.993 416.696L295.121 413.089C296.459 410.821 297.218 407.899 297.164 405.223C297.083 401.156 297.92 399.91 315.788 377.504C326.079 364.601 339.234 348.425 345.021 341.558C359.973 323.82 369.896 308.111 375.333 293.573C378.908 284.014 379.416 279.52 377.619 273.36C375.606 266.462 370.941 261.744 360.248 255.79C349.266 249.674 344.529 245.262 343.051 239.771C342.307 237.008 340.418 234.037 337.769 231.467C331.941 225.811 317.364 216.276 306.63 211.098C293.512 204.77 286.839 203.242 271.918 203.15L259.338 203.073L253.536 208.37C250.345 211.283 245.963 214.571 243.798 215.675C239.339 217.95 231.461 219.157 227.522 218.169C221.604 216.683 211.717 204.733 203.865 189.573C200.711 183.484 200.502 182.472 200.567 173.573C200.757 147.556 213.521 134.416 237.298 135.76C244.216 136.151 244.318 136.198 248.424 140.931C252.444 145.565 252.618 145.65 254.283 143.811C256.503 141.357 256.449 138.262 254.075 132.017C252.263 127.25 252.248 126.767 253.807 123.547C254.717 121.67 265.145 110.22 276.981 98.1026C307.745 66.6106 312.998 59.1036 312.998 46.6256C312.998 38.3536 310.921 32.4076 307.175 29.9526C305.392 28.7846 301.893 28.0866 296.51 27.8246C292.103 27.6106 287.243 26.9546 285.71 26.3666C283.028 25.3396 280.302 21.9356 281.334 20.9026C282.197 20.0406 300.024 22.5456 311.919 25.2006C325.194 28.1636 337.093 32.1746 348.85 37.6496L357.202 41.5386L362.35 36.2256C365.181 33.3026 368.804 29.9296 370.401 28.7286C371.997 27.5276 373.122 26.3776 372.901 26.1736C371.362 24.7576 352.76 16.1746 344.72 13.1716C320.548 4.14156 300.738 0.598562 271.498 0.0735625C259.948 -0.133438 246.673 0.111564 241.998 0.618564Z" fill="#FF9668"/>
<path fill-rule="evenodd" clip-rule="evenodd" d="M362.27 89.9856C360.232 63.0426 379.557 38.6306 406.146 34.5596C430.411 30.8446 454.578 46.1326 463.072 70.5726C466.178 79.5096 466.169 92.4616 463.05 101.573C459.319 112.47 449.638 127.1 432.61 147.573C420.037 162.69 417.025 165.573 413.805 165.573C410.469 165.573 409.581 164.713 394.874 147.261C371.526 119.553 363.431 105.333 362.27 89.9856ZM434.621 76.0726C431.811 70.1146 429.046 67.3986 422.998 64.6566C414.71 60.8996 405.751 62.3966 398.539 68.7456C392.789 73.8066 390.628 79.4266 391.169 87.9126C391.658 95.6016 394.822 101.104 401.166 105.303C406.857 109.069 417.737 109.767 423.658 106.747C435.35 100.781 440.059 87.6056 434.621 76.0726ZM130.827 271.344C146.18 256.185 151.248 252.527 161.998 248.849C172.436 245.277 181.736 246.307 185.732 251.477C190.287 257.371 189.294 268.509 183.091 281.073C179.76 287.819 176.857 291.449 164.57 304.232C156.555 312.57 149.998 319.862 149.998 320.437C149.998 321.013 154.498 338.76 159.998 359.875C170.803 401.358 171.451 405.746 167.929 413.573C166.111 417.615 149.698 435.573 147.822 435.573C147.427 435.573 138.987 419.485 129.065 399.823C119.143 380.16 110.615 363.445 110.113 362.678C109.4 361.588 107.486 362.792 101.35 368.19C97.0308 371.988 88.9238 378.597 83.3328 382.876L73.1688 390.656L74.2038 417.073L61.4638 429.553L6.66578 374.728L11.9308 368.65C14.8268 365.308 17.7138 362.55 18.3468 362.522C18.9798 362.494 25.3478 362.514 32.4978 362.567L45.4978 362.663L54.4828 350.868C59.4248 344.381 66.0928 336.303 69.3008 332.917L75.1338 326.761L52.3158 315.046C15.7818 296.288 0.529784 288.374 0.0507838 287.928C-1.07622 286.879 16.8808 270.172 21.4978 267.974C29.7178 264.059 33.5578 264.576 73.9558 275.027C94.0538 280.226 111.771 284.784 113.327 285.155C115.939 285.778 117.285 284.715 130.827 271.344Z" fill="#13478C"/>
</svg>
