<svg width="512" height="509" viewBox="0 0 512 509" fill="none" xmlns="http://www.w3.org/2000/svg">
<path fill-rule="evenodd" clip-rule="evenodd" d="M287.351 0.320768C237.981 2.69677 186.579 25.3538 152.918 59.5788C146.7 65.9008 146.47 66.3168 146.059 71.9978C145.391 81.2338 150.427 88.1148 159.023 89.7078C165.431 90.8968 168.509 89.4398 178.793 80.3498C201.892 59.9338 223.669 47.7198 251.115 39.7858C268.589 34.7348 276.745 33.7318 300.351 33.7288C319.281 33.7268 323.932 34.0448 333.685 36.0078C421.169 53.6138 481.859 129.947 478.536 218.196C477.935 234.175 476.611 243.497 472.855 258.196C466.246 284.065 451.267 311.373 432.529 331.712C423.151 341.892 421.486 345.041 422.1 351.436C422.927 360.047 429.571 366.196 438.049 366.196C444.707 366.196 447.422 364.56 455.827 355.479C485.559 323.358 504.642 282.528 510.316 238.895C512.077 225.352 512.326 200.569 510.825 188.17C501.966 114.975 458.008 52.9978 392.371 21.1588C358.645 4.79977 326.566 -1.56523 287.351 0.320768ZM80.8514 76.1388C73.0594 78.5438 42.7644 91.2068 33.3514 95.9948C19.1934 103.195 12.7444 109.382 7.04242 121.236C1.05342 133.684 -0.555575 143.133 0.157425 161.67C2.00842 209.783 30.5234 270.882 80.2094 333.196C129.252 394.703 194.579 449.744 255.177 480.612C320.91 514.096 377.219 517.597 402.693 489.782C409.636 482.202 430.32 436.588 432.817 423.351C434.404 414.942 430.92 404.291 424.696 398.522C422.619 396.597 358.451 359.094 348.88 354.211C340.012 349.687 328.188 351.016 319.667 357.496C317.155 359.407 313.524 363.823 310.979 368.062C302.358 382.422 291.574 390.022 276.487 392.367C267.118 393.824 258.289 392.455 249.971 388.257C243.557 385.019 224.94 370.518 206.731 354.577C173.351 325.353 126.843 273.341 119.237 256.728C109.497 235.453 117.909 210.568 139.097 197.98C151.782 190.445 157.77 180.39 156.559 168.658C155.895 162.22 155.423 161.301 131.446 119.696C110.521 83.3858 107.756 79.7148 99.1364 76.7768C94.3004 75.1298 85.1574 74.8108 80.8514 76.1388ZM233.244 126.605C213.025 130.452 196.613 145.574 192.818 163.854C191.032 172.459 191.873 185.405 194.443 188.873C201.482 198.371 214.49 198.779 221.401 189.72C223.826 186.54 224.302 184.801 224.858 177.101C225.439 169.047 225.789 167.864 228.427 165.06C232.514 160.713 236.702 159.194 244.569 159.206C257.235 159.224 265.681 165.373 266.632 175.268C267.922 188.69 265.607 191.931 240.466 211.912C231.053 219.394 219.284 229.605 214.312 234.605C204.465 244.509 194.41 258.687 192.329 265.602C189.885 273.725 193.082 280.966 200.871 284.946C205.232 287.174 205.684 287.196 247.313 287.19C271.816 287.187 290.829 286.774 292.895 286.2C296.916 285.083 302.211 280.068 303.79 275.881C306.226 269.419 303.551 261.26 297.53 256.79C294.878 254.821 293.12 254.666 268.03 254.196L241.351 253.696L258.851 239.773C293.434 212.258 299.964 202.434 299.94 177.953C299.931 168.489 298.953 163.709 295.408 155.796C285.962 134.717 258.469 121.806 233.244 126.605ZM387.592 126.593C385.524 127.348 383.102 128.573 382.209 129.314C379.649 131.438 303.312 224.39 300.965 228.241C296.997 234.75 298.873 244.117 305.18 249.281C309.273 252.633 315.116 253.196 345.794 253.196H375.851V263.228C375.851 274.826 376.98 278.346 382.16 282.894C389.222 289.094 400.459 287.761 405.943 280.072C408.096 277.053 408.386 275.458 408.684 264.995L409.016 253.294L413.46 252.627C433.235 249.662 433.086 222.603 413.278 219.633L408.851 218.969V178.484C408.851 133.238 408.842 133.172 401.945 128.674C397.249 125.612 392.256 124.888 387.592 126.593ZM375.513 218.867C375.297 219.083 369.692 219.133 363.056 218.978L350.992 218.696L363.171 203.875L375.351 189.054L375.629 203.764C375.781 211.855 375.729 218.651 375.513 218.867Z" fill="#FFEC79"/>
</svg>
