<svg width="440" height="520" viewBox="0 0 440 520" fill="none" xmlns="http://www.w3.org/2000/svg">
<path fill-rule="evenodd" clip-rule="evenodd" d="M196.267 1.54287C141.605 10.0728 94.9545 45.2498 72.9155 94.5575C62.0432 118.883 57.9166 140.252 58.8381 167.451C59.6688 191.926 64.4841 211.052 75.1627 232.279C80.8478 243.58 205.779 439.284 210.005 443.509C215.401 448.902 224.599 448.903 229.994 443.51C233.926 439.579 359.75 242.943 364.926 232.639C375.45 211.689 380.405 191.413 381.151 166.241C381.688 148.109 380.544 137.064 376.472 121.042C362.233 65.0372 316.318 19.1406 260.323 4.94037C240.633 -0.0531979 215.156 -1.40379 196.267 1.54287ZM236.632 90.4471C255.9 95.1248 272.648 107.249 282.538 123.679C296.037 146.103 296.037 176.222 282.538 199.147C278.234 206.457 265.123 219.563 257.81 223.866C234.861 237.369 205.139 237.369 182.19 223.866C174.877 219.563 161.766 206.457 157.462 199.147C143.954 176.206 143.954 146.495 157.462 123.555C161.766 116.244 174.877 103.138 182.19 98.8352C198.326 89.341 218.973 86.1596 236.632 90.4471Z" fill="#FFEC79"/>
<path fill-rule="evenodd" clip-rule="evenodd" d="M297.131 415.217C257.246 477.734 253.095 483.333 242.736 488.58C223.259 498.446 199.479 494.643 185.472 479.423C182.584 476.284 164.304 448.776 143.271 415.916C123.978 385.773 107.471 360.609 105.11 357.713C104.974 357.546 104.884 357.452 104.845 357.437C104.731 357.394 104.547 357.374 104.297 357.378C100.557 357.433 82.192 362.638 68.3575 367.638C25.5199 383.117 1.41269 405.199 0.0664945 430.187C-1.1486 452.758 14.2964 472.189 45.8312 487.761C77.8249 503.56 116.329 513.081 171.083 518.73C187.499 520.423 252.501 520.423 268.917 518.73C323.671 513.081 362.175 503.56 394.169 487.761C425.704 472.189 441.149 452.758 439.934 430.187C438.318 400.196 404.41 375.076 343.602 358.821L334.64 356.425L297.131 415.217Z" fill="#FFEC79"/>
</svg>
