<svg width="24" height="24" viewBox="0 0 24 24" fill="none" xmlns="http://www.w3.org/2000/svg">
<path fill-rule="evenodd" clip-rule="evenodd" d="M7.04741 2.33333C8.63852 2.15556 10.2993 2 12 2C13.7007 2 15.3615 2.15556 16.9526 2.33333C18.1619 2.472 19.2885 3.01685 20.148 3.87879C21.0075 4.74074 21.5492 5.86879 21.6844 7.07852C21.8548 8.66222 22 10.3111 22 12C22 13.6889 21.8548 15.3378 21.6844 16.9215C21.5492 18.1312 21.0075 19.2593 20.148 20.1212C19.2885 20.9832 18.1619 21.528 16.9526 21.6667C15.3615 21.8444 13.7007 22 12 22C10.2993 22 8.63852 21.8444 7.04741 21.6667C5.83807 21.528 4.71154 20.9832 3.85202 20.1212C2.99249 19.2593 2.45082 18.1312 2.31556 16.9215C2.14519 15.3378 2 13.6889 2 12C2 10.3111 2.14519 8.66222 2.31556 7.07852C2.45082 5.86879 2.99249 4.74074 3.85202 3.87879C4.71154 3.01685 5.83807 2.472 7.04741 2.33333ZM13.9733 5.89926C13.9222 5.67759 13.7912 5.48251 13.6054 5.35123C13.4196 5.21995 13.192 5.16166 12.966 5.18749C12.74 5.21331 12.5314 5.32144 12.38 5.49125C12.2286 5.66106 12.145 5.88065 12.1452 6.10815V14.6667C12.1452 15.1214 12.0103 15.566 11.7577 15.9441C11.505 16.3222 11.1459 16.6169 10.7258 16.7909C10.3057 16.9649 9.84338 17.0105 9.39736 16.9217C8.95135 16.833 8.54166 16.614 8.2201 16.2925C7.89855 15.9709 7.67956 15.5612 7.59085 15.1152C7.50213 14.6692 7.54766 14.2069 7.72169 13.7868C7.89571 13.3666 8.19042 13.0075 8.56853 12.7549C8.94664 12.5023 9.39118 12.3674 9.84593 12.3674C10.0915 12.3674 10.327 12.2699 10.5007 12.0962C10.6743 11.9226 10.7719 11.6871 10.7719 11.4415C10.7719 11.1959 10.6743 10.9604 10.5007 10.7868C10.327 10.6131 10.0915 10.5156 9.84593 10.5156C9.02491 10.5156 8.22234 10.759 7.53969 11.2151C6.85705 11.6713 6.32499 12.3196 6.0108 13.0781C5.69661 13.8366 5.61441 14.6713 5.77458 15.4765C5.93475 16.2817 6.3301 17.0214 6.91065 17.6019C7.49119 18.1825 8.23085 18.5778 9.03608 18.738C9.84132 18.8982 10.676 18.816 11.4345 18.5018C12.193 18.1876 12.8413 17.6555 13.2974 16.9729C13.7536 16.2903 13.997 15.4877 13.997 14.6667V9.4963C14.8859 10.2519 16.0326 10.6667 17.3778 10.6667C17.6233 10.6667 17.8589 10.5691 18.0325 10.3955C18.2061 10.2218 18.3037 9.98631 18.3037 9.74074C18.3037 9.49517 18.2061 9.25966 18.0325 9.08601C17.8589 8.91237 17.6233 8.81481 17.3778 8.81481C16.4 8.81481 15.6741 8.51259 15.1393 8.03704C14.5941 7.55111 14.1896 6.82815 13.9733 5.89926Z" fill="#FFEC79"/>
</svg>
